<?xml version="1.0" encoding="UTF-8"?>
<svg id="Layer_2" data-name="Layer 2" xmlns="http://www.w3.org/2000/svg" viewBox="0 0 515.04 82.9">
  <defs>
    <style>
      .cls-1 {
        opacity: .3;
      }

      .cls-1, .cls-2 {
        fill: none;
        stroke: #231f20;
        stroke-miterlimit: 10;
      }

      .cls-3 {
        fill: #231f20;
      }

      .cls-4 {
        opacity: .25;
      }
    </style>
  </defs>
  <g id="DIAGRAM">
    <g id="Layer_15" data-name="Layer 15">
      <circle class="cls-1" cx="44" cy="24.7" r="24.2"/>
      <line class="cls-2" x1="68.2" y1="24.7" x2="170.26" y2="24.7"/>
      <line class="cls-2" x1="218.65" y1="24.7" x2="320.71" y2="24.7"/>
      <line class="cls-2" x1="368.42" y1="24.7" x2="456.59" y2="24.7"/>
      <g class="cls-4">
        <path class="cls-3" d="M163.74,62.61c0-2.11,1.23-3.4,2.94-3.4.79,0,1.41.38,1.8.8l-.48.53c-.34-.36-.77-.59-1.32-.59-1.25,0-2.07,1.01-2.07,2.64s.82,2.68,2.07,2.68c.6,0,1.06-.26,1.47-.72l.48.51c-.51.6-1.16.95-2.03.95-1.62,0-2.86-1.26-2.86-3.4Z"/>
        <path class="cls-3" d="M169.57,62.58c0-2.12,1.04-3.37,2.52-3.37s2.52,1.25,2.52,3.37-1.04,3.43-2.52,3.43-2.52-1.28-2.52-3.43ZM173.74,62.58c0-1.65-.66-2.63-1.65-2.63s-1.65.98-1.65,2.63.66,2.69,1.65,2.69,1.65-1.01,1.65-2.69Z"/>
        <path class="cls-3" d="M176.43,59.33h.83v5.85h3.24v.71h-4.07v-6.56Z"/>
        <path class="cls-3" d="M182.43,59.33h.83v5.85h3.24v.71h-4.07v-6.56Z"/>
        <path class="cls-3" d="M188.23,59.33h4.06v.71h-3.22v2.05h2.72v.71h-2.72v2.38h3.32v.71h-4.16v-6.56Z"/>
        <path class="cls-3" d="M193.74,62.61c0-2.11,1.23-3.4,2.94-3.4.79,0,1.41.38,1.8.8l-.48.53c-.34-.36-.77-.59-1.32-.59-1.25,0-2.07,1.01-2.07,2.64s.82,2.68,2.07,2.68c.6,0,1.06-.26,1.47-.72l.48.51c-.51.6-1.16.95-2.03.95-1.62,0-2.86-1.26-2.86-3.4Z"/>
        <path class="cls-3" d="M201.67,60.04h-2.17v-.71h5.18v.71h-2.17v5.85h-.84v-5.85Z"/>
        <path class="cls-3" d="M206.04,65.18h1.63v-5.14h-1.63v-.71h4.1v.71h-1.63v5.14h1.63v.71h-4.1v-.71Z"/>
        <path class="cls-3" d="M211.91,59.33h.92l2.1,4.12.63,1.36h.02c-.03-.65-.11-1.39-.11-2.08v-3.4h.8v6.56h-.92l-2.1-4.12-.63-1.36h-.02c.03.67.11,1.37.11,2.05v3.43h-.8v-6.56Z"/>
        <path class="cls-3" d="M217.62,62.61c0-2.12,1.21-3.4,2.91-3.4.87,0,1.44.41,1.81.8l-.48.53c-.31-.33-.7-.59-1.33-.59-1.23,0-2.03,1.01-2.03,2.64s.73,2.68,2.01,2.68c.46,0,.89-.14,1.13-.38v-1.71h-1.3v-.69h2.08v2.76c-.41.42-1.11.76-1.96.76-1.65,0-2.84-1.26-2.84-3.4Z"/>
        <path class="cls-3" d="M164.11,71.33h1.98c1.45,0,2.43.49,2.43,1.93s-.99,2.03-2.43,2.03h-1.14v2.6h-.84v-6.56ZM165.99,74.61c1.14,0,1.69-.42,1.69-1.35s-.56-1.25-1.69-1.25h-1.04v2.6h1.04Z"/>
        <path class="cls-3" d="M170.23,71.33h4.06v.71h-3.22v2.05h2.72v.71h-2.72v2.38h3.32v.71h-4.16v-6.56Z"/>
        <path class="cls-3" d="M176.08,71.33h2.05c1.33,0,2.3.48,2.3,1.85s-.97,1.94-2.3,1.94h-1.2v2.77h-.85v-6.56ZM178.01,74.44c1.02,0,1.58-.42,1.58-1.26s-.56-1.17-1.58-1.17h-1.08v2.43h1.08ZM178.62,74.45l2,3.44h-.95l-1.71-3,.66-.44Z"/>
        <path class="cls-3" d="M181.74,74.61c0-2.11,1.23-3.4,2.94-3.4.79,0,1.41.38,1.8.8l-.48.53c-.34-.36-.77-.59-1.32-.59-1.25,0-2.07,1.01-2.07,2.64s.82,2.68,2.07,2.68c.6,0,1.06-.26,1.47-.72l.48.51c-.51.6-1.16.95-2.03.95-1.62,0-2.86-1.26-2.86-3.4Z"/>
        <path class="cls-3" d="M188.23,71.33h4.06v.71h-3.22v2.05h2.72v.71h-2.72v2.38h3.32v.71h-4.16v-6.56Z"/>
        <path class="cls-3" d="M194.11,71.33h1.98c1.45,0,2.43.49,2.43,1.93s-.99,2.03-2.43,2.03h-1.14v2.6h-.84v-6.56ZM195.99,74.61c1.14,0,1.69-.42,1.69-1.35s-.56-1.25-1.69-1.25h-1.04v2.6h1.04Z"/>
        <path class="cls-3" d="M201.67,72.04h-2.17v-.71h5.18v.71h-2.17v5.85h-.84v-5.85Z"/>
        <path class="cls-3" d="M206.04,77.18h1.63v-5.14h-1.63v-.71h4.1v.71h-1.63v5.14h1.63v.71h-4.1v-.71Z"/>
        <path class="cls-3" d="M211.57,74.58c0-2.12,1.04-3.37,2.52-3.37s2.52,1.25,2.52,3.37-1.04,3.43-2.52,3.43-2.52-1.28-2.52-3.43ZM215.74,74.58c0-1.65-.66-2.63-1.65-2.63s-1.65.98-1.65,2.63.66,2.69,1.65,2.69,1.65-1.01,1.65-2.69Z"/>
        <path class="cls-3" d="M217.91,71.33h.92l2.1,4.12.63,1.36h.02c-.03-.65-.11-1.39-.11-2.08v-3.4h.8v6.56h-.92l-2.1-4.12-.63-1.36h-.02c.03.67.11,1.37.11,2.05v3.43h-.8v-6.56Z"/>
        <path class="cls-3" d="M223.76,77.04l.5-.58c.5.49,1.18.81,1.92.81.9,0,1.42-.43,1.42-1.03,0-.7-.51-.9-1.17-1.18l-.95-.42c-.65-.26-1.41-.72-1.41-1.69s.9-1.74,2.15-1.74c.82,0,1.54.33,2.02.81l-.44.54c-.43-.38-.93-.61-1.61-.61-.76,0-1.27.36-1.27.95,0,.63.61.86,1.17,1.08l.92.41c.81.32,1.45.78,1.45,1.75,0,1.04-.88,1.87-2.32,1.87-.96,0-1.79-.38-2.38-.97Z"/>
      </g>
      <g>
        <path class="cls-3" d="M320.16,60.28h-2.17v-.71h5.18v.71h-2.17v5.85h-.84v-5.85Z"/>
        <path class="cls-3" d="M324.06,62.82c0-2.12,1.04-3.37,2.52-3.37s2.52,1.25,2.52,3.37-1.04,3.43-2.52,3.43-2.52-1.28-2.52-3.43ZM328.22,62.82c0-1.65-.66-2.63-1.65-2.63s-1.65.98-1.65,2.63.66,2.69,1.65,2.69,1.65-1.01,1.65-2.69Z"/>
        <path class="cls-3" d="M330.6,59.57h1.98c1.45,0,2.43.49,2.43,1.93s-.99,2.03-2.43,2.03h-1.14v2.6h-.84v-6.56ZM332.48,62.85c1.14,0,1.69-.42,1.69-1.35s-.56-1.25-1.69-1.25h-1.04v2.6h1.04Z"/>
        <path class="cls-3" d="M336.06,62.82c0-2.12,1.04-3.37,2.52-3.37s2.52,1.25,2.52,3.37-1.04,3.43-2.52,3.43-2.52-1.28-2.52-3.43ZM340.22,62.82c0-1.65-.66-2.63-1.65-2.63s-1.65.98-1.65,2.63.66,2.69,1.65,2.69,1.65-1.01,1.65-2.69Z"/>
        <path class="cls-3" d="M342.92,59.57h.83v5.85h3.24v.71h-4.07v-6.56Z"/>
        <path class="cls-3" d="M348.06,62.82c0-2.12,1.04-3.37,2.52-3.37s2.52,1.25,2.52,3.37-1.04,3.43-2.52,3.43-2.52-1.28-2.52-3.43ZM352.22,62.82c0-1.65-.66-2.63-1.65-2.63s-1.65.98-1.65,2.63.66,2.69,1.65,2.69,1.65-1.01,1.65-2.69Z"/>
        <path class="cls-3" d="M354.11,62.85c0-2.12,1.21-3.4,2.91-3.4.87,0,1.44.41,1.81.8l-.48.53c-.31-.33-.7-.59-1.33-.59-1.23,0-2.03,1.01-2.03,2.64s.73,2.68,2.01,2.68c.46,0,.89-.14,1.13-.38v-1.71h-1.3v-.69h2.08v2.76c-.41.42-1.11.76-1.96.76-1.65,0-2.84-1.26-2.84-3.4Z"/>
        <path class="cls-3" d="M362.16,63.79l-2.2-4.22h.89l.98,1.94c.25.51.48,1.01.75,1.53h.04c.26-.52.52-1.02.77-1.53l.95-1.94h.86l-2.2,4.22v2.34h-.84v-2.34Z"/>
        <path class="cls-3" d="M318.23,74.85c0-2.11,1.23-3.4,2.94-3.4.79,0,1.41.38,1.8.8l-.48.53c-.34-.36-.77-.59-1.32-.59-1.25,0-2.07,1.01-2.07,2.64s.82,2.68,2.07,2.68c.6,0,1.06-.26,1.47-.72l.48.51c-.51.6-1.16.95-2.03.95-1.62,0-2.86-1.26-2.86-3.4Z"/>
        <path class="cls-3" d="M324.06,74.82c0-2.12,1.04-3.37,2.52-3.37s2.52,1.25,2.52,3.37-1.04,3.43-2.52,3.43-2.52-1.28-2.52-3.43ZM328.22,74.82c0-1.65-.66-2.63-1.65-2.63s-1.65.98-1.65,2.63.66,2.69,1.65,2.69,1.65-1.01,1.65-2.69Z"/>
        <path class="cls-3" d="M330.4,71.57h.92l2.1,4.12.63,1.36h.02c-.03-.65-.11-1.39-.11-2.08v-3.4h.8v6.56h-.92l-2.1-4.12-.63-1.36h-.02c.03.67.11,1.37.11,2.05v3.43h-.8v-6.56Z"/>
        <path class="cls-3" d="M336.25,77.28l.5-.58c.5.49,1.18.81,1.92.81.9,0,1.42-.43,1.42-1.03,0-.7-.51-.9-1.17-1.18l-.95-.42c-.65-.26-1.41-.72-1.41-1.69s.9-1.74,2.15-1.74c.82,0,1.54.33,2.02.81l-.44.54c-.43-.38-.93-.61-1.61-.61-.76,0-1.27.36-1.27.95,0,.63.61.86,1.17,1.08l.92.41c.81.32,1.45.78,1.45,1.75,0,1.04-.88,1.87-2.32,1.87-.96,0-1.79-.38-2.38-.97Z"/>
        <path class="cls-3" d="M344.16,72.28h-2.17v-.71h5.18v.71h-2.17v5.85h-.84v-5.85Z"/>
        <path class="cls-3" d="M348.57,71.57h2.05c1.33,0,2.3.48,2.3,1.85s-.97,1.94-2.3,1.94h-1.2v2.77h-.85v-6.56ZM350.5,74.68c1.02,0,1.58-.42,1.58-1.26s-.56-1.17-1.58-1.17h-1.08v2.43h1.08ZM351.1,74.69l2,3.44h-.95l-1.71-3,.66-.44Z"/>
        <path class="cls-3" d="M354.37,75.65v-4.08h.85v4.1c0,1.35.59,1.84,1.37,1.84s1.39-.49,1.39-1.84v-4.1h.81v4.08c0,1.88-.92,2.6-2.2,2.6s-2.22-.72-2.22-2.6Z"/>
        <path class="cls-3" d="M360.23,74.85c0-2.11,1.23-3.4,2.94-3.4.79,0,1.41.38,1.8.8l-.48.53c-.34-.36-.77-.59-1.32-.59-1.25,0-2.07,1.01-2.07,2.64s.82,2.68,2.07,2.68c.6,0,1.06-.26,1.47-.72l.48.51c-.51.6-1.16.95-2.03.95-1.62,0-2.86-1.26-2.86-3.4Z"/>
        <path class="cls-3" d="M368.15,72.28h-2.17v-.71h5.18v.71h-2.17v5.85h-.84v-5.85Z"/>
        <path class="cls-3" d="M372.53,77.41h1.63v-5.14h-1.63v-.71h4.1v.71h-1.63v5.14h1.63v.71h-4.1v-.71Z"/>
        <path class="cls-3" d="M378.06,74.82c0-2.12,1.04-3.37,2.52-3.37s2.52,1.25,2.52,3.37-1.04,3.43-2.52,3.43-2.52-1.28-2.52-3.43ZM382.22,74.82c0-1.65-.66-2.63-1.65-2.63s-1.65.98-1.65,2.63.66,2.69,1.65,2.69,1.65-1.01,1.65-2.69Z"/>
        <path class="cls-3" d="M384.4,71.57h.92l2.1,4.12.63,1.36h.02c-.03-.65-.11-1.39-.11-2.08v-3.4h.8v6.56h-.92l-2.1-4.12-.63-1.36h-.02c.03.67.11,1.37.11,2.05v3.43h-.8v-6.56Z"/>
      </g>
      <g>
        <path class="cls-3" d="M463.62,60.52h-2.17v-.71h5.18v.71h-2.17v5.85h-.84v-5.85Z"/>
        <path class="cls-3" d="M467.52,63.06c0-2.12,1.04-3.37,2.52-3.37s2.52,1.25,2.52,3.37-1.04,3.43-2.52,3.43-2.52-1.28-2.52-3.43ZM471.69,63.06c0-1.65-.66-2.63-1.65-2.63s-1.65.98-1.65,2.63.66,2.69,1.65,2.69,1.65-1.01,1.65-2.69Z"/>
        <path class="cls-3" d="M474.06,59.81h1.98c1.45,0,2.43.49,2.43,1.93s-.99,2.03-2.43,2.03h-1.14v2.6h-.84v-6.56ZM475.94,63.08c1.14,0,1.69-.42,1.69-1.35s-.56-1.25-1.69-1.25h-1.04v2.6h1.04Z"/>
        <path class="cls-3" d="M479.52,63.06c0-2.12,1.04-3.37,2.52-3.37s2.52,1.25,2.52,3.37-1.04,3.43-2.52,3.43-2.52-1.28-2.52-3.43ZM483.69,63.06c0-1.65-.66-2.63-1.65-2.63s-1.65.98-1.65,2.63.66,2.69,1.65,2.69,1.65-1.01,1.65-2.69Z"/>
        <path class="cls-3" d="M486.38,59.81h.83v5.85h3.24v.71h-4.07v-6.56Z"/>
        <path class="cls-3" d="M491.52,63.06c0-2.12,1.04-3.37,2.52-3.37s2.52,1.25,2.52,3.37-1.04,3.43-2.52,3.43-2.52-1.28-2.52-3.43ZM495.69,63.06c0-1.65-.66-2.63-1.65-2.63s-1.65.98-1.65,2.63.66,2.69,1.65,2.69,1.65-1.01,1.65-2.69Z"/>
        <path class="cls-3" d="M497.57,63.08c0-2.12,1.21-3.4,2.91-3.4.87,0,1.44.41,1.81.8l-.48.53c-.31-.33-.7-.59-1.33-.59-1.23,0-2.03,1.01-2.03,2.64s.73,2.68,2.01,2.68c.46,0,.89-.14,1.13-.38v-1.71h-1.3v-.69h2.08v2.76c-.41.42-1.11.76-1.96.76-1.65,0-2.84-1.26-2.84-3.4Z"/>
        <path class="cls-3" d="M505.62,64.02l-2.2-4.22h.89l.98,1.94c.25.51.48,1.01.75,1.53h.04c.26-.52.52-1.02.77-1.53l.95-1.94h.86l-2.2,4.22v2.34h-.84v-2.34Z"/>
        <path class="cls-3" d="M463.56,71.81h.96l2.21,6.56h-.9l-1.13-3.66c-.23-.73-.45-1.45-.65-2.21h-.04c-.21.76-.42,1.48-.65,2.21l-1.15,3.66h-.86l2.21-6.56ZM462.52,75.69h3.01v.68h-3.01v-.68Z"/>
        <path class="cls-3" d="M467.86,71.81h.92l2.1,4.12.63,1.36h.02c-.03-.65-.11-1.39-.11-2.08v-3.4h.8v6.56h-.92l-2.1-4.12-.63-1.36h-.02c.03.67.11,1.37.11,2.05v3.43h-.8v-6.56Z"/>
        <path class="cls-3" d="M475.56,71.81h.96l2.21,6.56h-.9l-1.13-3.66c-.23-.73-.45-1.45-.65-2.21h-.04c-.21.76-.42,1.48-.65,2.21l-1.15,3.66h-.86l2.21-6.56ZM474.52,75.69h3.01v.68h-3.01v-.68Z"/>
        <path class="cls-3" d="M480.38,71.81h.83v5.85h3.24v.71h-4.07v-6.56Z"/>
        <path class="cls-3" d="M487.62,76.02l-2.2-4.22h.89l.98,1.94c.25.51.48,1.01.75,1.53h.04c.26-.52.52-1.02.77-1.53l.95-1.94h.86l-2.2,4.22v2.34h-.84v-2.34Z"/>
        <path class="cls-3" d="M491.71,77.51l.5-.58c.5.49,1.18.81,1.92.81.9,0,1.42-.43,1.42-1.03,0-.7-.51-.9-1.17-1.18l-.95-.42c-.65-.26-1.41-.72-1.41-1.69s.9-1.74,2.15-1.74c.82,0,1.54.33,2.02.81l-.44.54c-.43-.38-.93-.61-1.61-.61-.76,0-1.27.36-1.27.95,0,.63.61.86,1.17,1.08l.92.41c.81.32,1.45.78,1.45,1.75,0,1.04-.88,1.87-2.32,1.87-.96,0-1.79-.38-2.38-.97Z"/>
        <path class="cls-3" d="M497.99,77.65h1.63v-5.14h-1.63v-.71h4.1v.71h-1.63v5.14h1.63v.71h-4.1v-.71Z"/>
        <path class="cls-3" d="M503.71,77.51l.5-.58c.5.49,1.18.81,1.92.81.9,0,1.42-.43,1.42-1.03,0-.7-.51-.9-1.17-1.18l-.95-.42c-.65-.26-1.41-.72-1.41-1.69s.9-1.74,2.15-1.74c.82,0,1.54.33,2.02.81l-.44.54c-.43-.38-.93-.61-1.61-.61-.76,0-1.27.36-1.27.95,0,.63.61.86,1.17,1.08l.92.41c.81.32,1.45.78,1.45,1.75,0,1.04-.88,1.87-2.32,1.87-.96,0-1.79-.38-2.38-.97Z"/>
      </g>
      <g class="cls-4">
        <path class="cls-3" d="M.67,65.39l.5-.58c.5.49,1.18.81,1.92.81.9,0,1.42-.43,1.42-1.03,0-.7-.51-.9-1.17-1.18l-.95-.42c-.65-.26-1.41-.72-1.41-1.69s.9-1.74,2.15-1.74c.82,0,1.54.33,2.02.81l-.44.54c-.43-.38-.93-.61-1.61-.61-.76,0-1.27.36-1.27.95,0,.63.61.86,1.17,1.08l.92.41c.81.32,1.45.78,1.45,1.75,0,1.04-.88,1.87-2.32,1.87-.96,0-1.79-.38-2.38-.97Z"/>
        <path class="cls-3" d="M8.58,60.4h-2.17v-.71h5.18v.71h-2.17v5.85h-.84v-5.85Z"/>
        <path class="cls-3" d="M12.95,65.53h1.63v-5.14h-1.63v-.71h4.1v.71h-1.63v5.14h1.63v.71h-4.1v-.71Z"/>
        <path class="cls-3" d="M18.72,59.69h1.02l.92,2.8.32,1.06h.04l.31-1.06.93-2.8h1.02v6.56h-.8v-3.28c0-.64.1-1.76.14-2.32h-.03l-.37,1.28-.94,2.58h-.6l-.92-2.58-.38-1.28h-.02c.06.56.14,1.68.14,2.32v3.28h-.78v-6.56Z"/>
        <path class="cls-3" d="M24.79,63.77v-4.08h.85v4.1c0,1.35.59,1.84,1.37,1.84s1.39-.49,1.39-1.84v-4.1h.81v4.08c0,1.88-.92,2.6-2.2,2.6s-2.22-.72-2.22-2.6Z"/>
        <path class="cls-3" d="M31.34,59.69h.83v5.85h3.24v.71h-4.07v-6.56Z"/>
        <path class="cls-3" d="M36.95,65.53h1.63v-5.14h-1.63v-.71h4.1v.71h-1.63v5.14h1.63v.71h-4.1v-.71Z"/>
        <path class="cls-3" d="M48.65,62.97c0-2.11,1.23-3.4,2.94-3.4.79,0,1.41.38,1.8.8l-.48.53c-.34-.36-.77-.59-1.32-.59-1.25,0-2.07,1.01-2.07,2.64s.82,2.68,2.07,2.68c.6,0,1.06-.26,1.47-.72l.48.51c-.51.6-1.16.95-2.03.95-1.62,0-2.86-1.26-2.86-3.4Z"/>
        <path class="cls-3" d="M54.99,59.69h2.05c1.33,0,2.3.48,2.3,1.85s-.97,1.94-2.3,1.94h-1.2v2.77h-.85v-6.56ZM56.92,62.8c1.02,0,1.58-.42,1.58-1.26s-.56-1.17-1.58-1.17h-1.08v2.43h1.08ZM57.53,62.81l2,3.44h-.95l-1.71-3,.66-.44Z"/>
        <path class="cls-3" d="M61.14,59.69h4.06v.71h-3.22v2.05h2.72v.71h-2.72v2.38h3.32v.71h-4.16v-6.56Z"/>
        <path class="cls-3" d="M68.52,59.69h.96l2.21,6.56h-.9l-1.13-3.66c-.23-.73-.45-1.45-.65-2.21h-.04c-.21.76-.42,1.48-.65,2.21l-1.15,3.66h-.86l2.21-6.56ZM67.48,63.58h3.01v.68h-3.01v-.68Z"/>
        <path class="cls-3" d="M74.58,60.4h-2.17v-.71h5.18v.71h-2.17v5.85h-.84v-5.85Z"/>
        <path class="cls-3" d="M78.95,65.53h1.63v-5.14h-1.63v-.71h4.1v.71h-1.63v5.14h1.63v.71h-4.1v-.71Z"/>
        <path class="cls-3" d="M84.48,62.94c0-2.12,1.04-3.37,2.52-3.37s2.52,1.25,2.52,3.37-1.04,3.43-2.52,3.43-2.52-1.28-2.52-3.43ZM88.65,62.94c0-1.65-.66-2.63-1.65-2.63s-1.65.98-1.65,2.63.66,2.69,1.65,2.69,1.65-1.01,1.65-2.69Z"/>
        <path class="cls-3" d="M90.82,59.69h.92l2.1,4.12.63,1.36h.02c-.03-.65-.11-1.39-.11-2.08v-3.4h.8v6.56h-.92l-2.1-4.12-.63-1.36h-.02c.03.67.11,1.37.11,2.05v3.43h-.8v-6.56Z"/>
      </g>
      <rect class="cls-1" x="170.26" y=".5" width="48.4" height="48.4"/>
      <rect class="cls-2" x="320.71" y=".5" width="8.9" height="8.9"/>
      <rect class="cls-2" x="329.61" y=".5" width="8.9" height="8.9"/>
      <rect class="cls-2" x="329.61" y="9.4" width="8.9" height="8.9"/>
      <rect class="cls-2" x="338.51" y="24.7" width="8.9" height="8.9"/>
      <rect class="cls-2" x="356.31" y="42.5" width="8.9" height="8.9"/>
      <rect class="cls-2" x="329.61" y="42.5" width="8.9" height="8.9"/>
      <rect class="cls-2" x="347.41" y=".5" width="8.9" height="8.9"/>
      <rect class="cls-2" x="356.31" y="9.4" width="8.9" height="8.9"/>
      <rect class="cls-2" x="347.41" y="24.7" width="8.9" height="8.9"/>
      <rect class="cls-2" x="347.41" y="33.6" width="8.9" height="8.9"/>
      <rect class="cls-2" x="347.41" y="42.5" width="8.9" height="8.9"/>
      <rect class="cls-2" x="456.59" y=".5" width="8.9" height="8.9" rx="4.45" ry="4.45"/>
      <rect class="cls-2" x="465.49" y=".5" width="8.9" height="8.9" rx="4.45" ry="4.45"/>
      <rect class="cls-2" x="465.49" y="9.4" width="8.9" height="8.9" rx="4.45" ry="4.45"/>
      <rect class="cls-2" x="474.39" y="24.7" width="8.9" height="8.9" rx="4.45" ry="4.45"/>
      <rect class="cls-2" x="492.19" y="42.5" width="8.9" height="8.9" rx="4.45" ry="4.45"/>
      <rect class="cls-2" x="465.49" y="42.5" width="8.9" height="8.9" rx="4.45" ry="4.45"/>
      <rect class="cls-2" x="483.29" y=".5" width="8.9" height="8.9" rx="4.45" ry="4.45"/>
      <rect class="cls-2" x="492.19" y="9.4" width="8.9" height="8.9" rx="4.45" ry="4.45"/>
      <rect class="cls-2" x="483.29" y="24.7" width="8.9" height="8.9" rx="4.45" ry="4.45"/>
      <rect class="cls-2" x="483.29" y="33.6" width="8.9" height="8.9" rx="4.45" ry="4.45"/>
      <rect class="cls-2" x="483.29" y="42.5" width="8.9" height="8.9" rx="4.45" ry="4.45"/>
    </g>
  </g>
</svg>