<?xml version="1.0" encoding="UTF-8"?>
<svg id="Layer_2" data-name="Layer 2" xmlns="http://www.w3.org/2000/svg" viewBox="0 0 174.13 39.26">
  <defs>
    <style>
      .cls-1 {
        stroke-width: .5px;
      }

      .cls-1, .cls-2 {
        stroke: #bebfc1;
      }

      .cls-1, .cls-2, .cls-3 {
        fill: none;
        stroke-miterlimit: 10;
      }

      .cls-2 {
        stroke-width: .25px;
      }

      .cls-4 {
        fill: #bebfc1;
      }

      .cls-5 {
        opacity: .5;
      }

      .cls-3 {
        stroke: #d4d5d6;
        stroke-width: .75px;
      }
    </style>
  </defs>
  <g id="Layer_1-2" data-name="Layer 1">
    <g>
      <circle class="cls-3" cx="39.74" cy="3.6" r="1.52"/>
      <circle class="cls-3" cx="32.21" cy="16.95" r="1.52"/>
      <circle class="cls-3" cx="24.64" cy="11.62" r="1.52"/>
      <circle class="cls-3" cx="17.08" cy="16.95" r="1.52"/>
      <circle class="cls-3" cx="9.36" cy="19.05" r="1.52"/>
      <circle class="cls-3" cx="1.89" cy="25.36" r="1.52"/>
      <line class="cls-3" x1="39.74" y1="35.92" x2="39.74" y2="6.12"/>
      <line class="cls-3" x1="32.21" y1="35.92" x2="32.21" y2="19.63"/>
      <line class="cls-3" x1="32.21" y1="14.52" x2="32.21" y2="10.56"/>
      <line class="cls-3" x1="24.64" y1="35.92" x2="24.64" y2="14.31"/>
      <line class="cls-3" x1="17" y1="35.92" x2="17" y2="19.63"/>
      <line class="cls-3" x1="9.36" y1="35.92" x2="9.36" y2="21.63"/>
      <line class="cls-3" x1="1.89" y1="35.92" x2="1.89" y2="27.79"/>
    </g>
    <g class="cls-5">
      <circle class="cls-4" cx="154.62" cy="1.52" r="1.52"/>
      <circle class="cls-4" cx="154.62" cy="19.26" r="1.52"/>
      <circle class="cls-4" cx="154.62" cy="28.5" r="1.52"/>
      <circle class="cls-4" cx="154.62" cy="37.74" r="1.52"/>
      <line class="cls-2" x1="154.62" y1="16.99" x2="154.62" y2="4.1"/>
      <line class="cls-2" x1="154.62" y1="26.65" x2="154.62" y2="21.66"/>
      <line class="cls-2" x1="154.62" y1="35.61" x2="154.62" y2="30.63"/>
      <polyline class="cls-1" points="152.4 2.52 135.68 10.54 152.4 18.26"/>
      <polyline class="cls-1" points="145.44 15.05 135.68 19.73 152.4 27.45"/>
      <polyline class="cls-1" points="156.83 2.52 173.55 10.54 156.83 18.26"/>
      <polyline class="cls-1" points="163.79 15.05 173.55 19.73 156.83 27.45"/>
      <polyline class="cls-1" points="145.44 24.15 135.68 28.84 152.4 36.55"/>
      <polyline class="cls-1" points="163.79 24.15 173.55 28.84 156.83 36.55"/>
    </g>
    <g class="cls-5">
      <circle class="cls-1" cx="87.77" cy="26.05" r="1.52"/>
      <rect class="cls-1" x="73.07" y="2.33" width="34.61" height="34.61"/>
      <g>
        <line class="cls-1" x1="94.81" y1="16.24" x2="87.04" y2="8.47"/>
        <path class="cls-4" d="M96.07,14.85c.73.73.73,1.92,0,2.66-.73.73-1.92.73-2.66,0s-.73-1.92,0-2.66,1.92-.73,2.66,0Z"/>
        <polygon class="cls-4" points="89.66 8.2 89.64 8.7 87.18 8.61 87.27 11.07 86.77 11.09 86.66 8.09 89.66 8.2"/>
      </g>
      <line class="cls-2" x1="90.8" y1="36.93" x2="90.8" y2="2.33"/>
      <line class="cls-2" x1="73.07" y1="19.63" x2="107.68" y2="19.63"/>
    </g>
  </g>
</svg>