<?xml version="1.0" encoding="UTF-8"?>
<svg id="Layer_2" data-name="Layer 2" xmlns="http://www.w3.org/2000/svg" viewBox="0 0 174.01 39.26">
  <defs>
    <style>
      .cls-1, .cls-2 {
        stroke: #bebfc1;
      }

      .cls-1, .cls-2, .cls-3, .cls-4 {
        fill: none;
        stroke-miterlimit: 10;
      }

      .cls-1, .cls-3 {
        stroke-width: .5px;
      }

      .cls-2 {
        stroke-width: .25px;
      }

      .cls-5 {
        fill: #d4d5d6;
      }

      .cls-6 {
        fill: #bebfc1;
      }

      .cls-7 {
        opacity: .5;
      }

      .cls-3, .cls-4 {
        stroke: #d4d5d6;
      }

      .cls-4 {
        stroke-width: .75px;
      }
    </style>
  </defs>
  <g id="Layer_1-2" data-name="Layer 1">
    <g class="cls-7">
      <circle class="cls-3" cx="39.62" cy="3.6" r="1.52"/>
      <circle class="cls-3" cx="32.08" cy="16.95" r="1.52"/>
      <circle class="cls-3" cx="24.52" cy="11.62" r="1.52"/>
      <circle class="cls-3" cx="16.95" cy="16.95" r="1.52"/>
      <circle class="cls-3" cx="9.23" cy="19.05" r="1.52"/>
      <circle class="cls-3" cx="1.77" cy="25.36" r="1.52"/>
      <line class="cls-3" x1="39.62" y1="35.92" x2="39.62" y2="6.12"/>
      <line class="cls-3" x1="32.08" y1="35.92" x2="32.08" y2="19.63"/>
      <line class="cls-3" x1="32.08" y1="14.52" x2="32.08" y2="10.56"/>
      <line class="cls-3" x1="24.52" y1="35.92" x2="24.52" y2="14.31"/>
      <line class="cls-3" x1="16.88" y1="35.92" x2="16.88" y2="19.63"/>
      <line class="cls-3" x1="9.23" y1="35.92" x2="9.23" y2="21.63"/>
      <line class="cls-3" x1="1.77" y1="35.92" x2="1.77" y2="27.79"/>
    </g>
    <g class="cls-7">
      <circle class="cls-6" cx="154.49" cy="1.52" r="1.52"/>
      <circle class="cls-6" cx="154.49" cy="19.26" r="1.52"/>
      <circle class="cls-6" cx="154.49" cy="28.5" r="1.52"/>
      <circle class="cls-6" cx="154.49" cy="37.74" r="1.52"/>
      <line class="cls-2" x1="154.49" y1="16.99" x2="154.49" y2="4.1"/>
      <line class="cls-2" x1="154.49" y1="26.65" x2="154.49" y2="21.66"/>
      <line class="cls-2" x1="154.49" y1="35.61" x2="154.49" y2="30.63"/>
      <polyline class="cls-1" points="152.27 2.52 135.56 10.54 152.27 18.26"/>
      <polyline class="cls-1" points="145.32 15.05 135.56 19.73 152.27 27.45"/>
      <polyline class="cls-1" points="156.71 2.52 173.42 10.54 156.71 18.26"/>
      <polyline class="cls-1" points="163.66 15.05 173.42 19.73 156.71 27.45"/>
      <polyline class="cls-1" points="145.32 24.15 135.56 28.84 152.27 36.55"/>
      <polyline class="cls-1" points="163.66 24.15 173.42 28.84 156.71 36.55"/>
    </g>
    <g>
      <circle class="cls-4" cx="87.64" cy="26.05" r="1.52"/>
      <rect class="cls-4" x="72.95" y="2.33" width="34.61" height="34.61"/>
      <g>
        <line class="cls-4" x1="94.62" y1="16.18" x2="86.94" y2="8.49"/>
        <path class="cls-5" d="M95.95,14.71c.77.77.77,2.02,0,2.79-.77.77-2.02.77-2.79,0-.77-.77-.77-2.02,0-2.79.77-.77,2.02-.77,2.79,0Z"/>
        <polygon class="cls-5" points="89.68 8.2 89.67 8.73 87.08 8.63 87.17 11.22 86.65 11.24 86.53 8.09 89.68 8.2"/>
      </g>
      <line class="cls-4" x1="90.68" y1="36.93" x2="90.68" y2="2.33"/>
      <line class="cls-4" x1="72.95" y1="19.63" x2="107.55" y2="19.63"/>
    </g>
  </g>
</svg>